<svg height="128" viewBox="0 0 128 128" width="128" xmlns="http://www.w3.org/2000/svg"><linearGradient id="a" gradientUnits="userSpaceOnUse" x1="22" x2="110" y1="13" y2="119"><stop offset="0" stop-color="#9a3c94"/><stop offset=".45" stop-color="#613583"/><stop offset="1" stop-color="#241f31"/></linearGradient><radialGradient id="b" cx="54" cy="45" gradientUnits="userSpaceOnUse" r="70"><stop offset="0" stop-color="#dc8add" stop-opacity=".5"/><stop offset=".48" stop-color="#9141ac" stop-opacity=".13"/><stop offset="1" stop-color="#241f31" stop-opacity="0"/></radialGradient><radialGradient id="c" cx="45" cy="33" gradientUnits="userSpaceOnUse" r="58"><stop offset="0" stop-color="#fff"/><stop offset=".62" stop-color="#f6f5f4"/><stop offset="1" stop-color="#e9d7ef"/></radialGradient><linearGradient id="d" gradientUnits="userSpaceOnUse" x1="37" x2="93" y1="24" y2="99"><stop offset="0" stop-color="#f6f5f4"/><stop offset=".44" stop-color="#e9d7ef"/><stop offset=".58" stop-color="#c061cb"/><stop offset="1" stop-color="#613583"/></linearGradient><linearGradient id="e" gradientUnits="userSpaceOnUse" x1="42" x2="96" y1="58" y2="96"><stop offset="0" stop-color="#c061cb"/><stop offset=".58" stop-color="#813d9c"/><stop offset="1" stop-color="#3d2a62"/></linearGradient><linearGradient id="f" gradientUnits="userSpaceOnUse" x1="37" x2="97" y1="77" y2="90"><stop offset="0" stop-color="#c061cb" stop-opacity="0"/><stop offset=".58" stop-color="#c061cb" stop-opacity=".45"/><stop offset="1" stop-color="#dc8add" stop-opacity=".9"/></linearGradient><linearGradient id="g" x1="0" x2="0" y1="0" y2="1"><stop offset="0" stop-color="#8a3c95"/><stop offset="1" stop-color="#4b3375"/></linearGradient><clipPath id="h"><circle cx="64" cy="60" r="36"/></clipPath><rect fill="url(#a)" height="112" rx="26" width="112" x="8" y="8"/><rect fill="url(#b)" height="112" rx="26" width="112" x="8" y="8"/><g fill="#fff" opacity=".96"><circle cx="25" cy="77" r="1.2"/><circle cx="94" cy="43" r="1.4"/><circle cx="35" cy="85" r=".9"/></g><ellipse cx="66" cy="88" opacity=".25" rx="38" ry="12"/><g transform="matrix(.95105652 -.30901699 .30901699 .95105652 -16.026671 22.811584)"><circle cx="64" cy="60" fill="url(#d)" r="36"/><g clip-path="url(#h)"><path d="M24 59c14 14 29 21 47 20 14-1 27-7 35-18v39H24z" fill="url(#e)"/><g fill="none"><path d="M25 68c15 14 33 20 52 18 13-1 23-8 30-19" stroke="#4e2e76" stroke-opacity=".45" stroke-width="1.1"/><path d="M28 78c15 12 34 17 52 14 12-2 21-8 27-17" stroke="#4e2e76" stroke-opacity=".35"/><path d="M36 88c17 10 40 12 59 0" stroke="#dc8add" stroke-linecap="round" stroke-opacity=".38" stroke-width="2"/><path d="M33 60c12 9 26 13 42 12 12-1 21-6 29-13" stroke="#fff" stroke-opacity=".16"/></g></g><g clip-path="url(#h)"><path d="M27 52c2-21 21-32 42-30 17 2 27 12 28 26 0 15-13 24-26 22-11-2-12 10-21 13-12 4-23-8-23-31z" fill="url(#c)"/><path d="M55 20c11 3 15 11 13 21-2 11-14 14-19 24-6 12-15 14-22 9V31z" fill="#fff" opacity=".58"/><path d="M75 25c11 4 17 13 18 24 1 10-4 17-13 21" fill="none" stroke="#fff" stroke-linecap="round" stroke-opacity=".42" stroke-width="6"/></g><g clip-path="url(#h)"><g fill="url(#g)"><circle cx="43" cy="42" r="3.2"/><circle cx="54" cy="56" r="6.2"/><circle cx="35" cy="62" r="4.4"/><circle cx="65" cy="76" opacity=".88" r="5"/><circle cx="81" cy="62" opacity=".76" r="4.3"/></g><circle cx="75" cy="43" fill="#a852a7" opacity=".78" r="3.4"/><circle cx="59" cy="33" fill="#c061cb" opacity=".72" r="1.9"/><circle cx="88" cy="51" fill="#4e2e76" opacity=".72" r="1.7"/><circle cx="52" cy="74" fill="#dc8add" opacity=".7" r="2.5"/><circle cx="44" cy="36" fill="#8a3c95" opacity=".75" r="1.6"/></g><g fill="none"><circle cx="64" cy="60" r="36" stroke="#241f31" stroke-opacity=".22"/><path d="M32 77c16 14 45 19 65 1" stroke="url(#f)" stroke-linecap="round" stroke-width="3"/></g></g><circle cx="71" cy="36" fill="#fff" opacity=".12" r="7"/></svg>